<svg id="Capa_1" enable-background="new 0 0 512 512" height="512" viewBox="0 0 512 512" width="512" xmlns="http://www.w3.org/2000/svg"><g><g><g><path d="m328.42 106.38c-4.12 0-7.902-2.63-9.35-6.482-1.41-3.75-.404-8.071 2.514-10.818 3.169-2.983 8.069-3.534 11.833-1.363 3.613 2.084 5.599 6.346 4.842 10.452-.863 4.686-5.063 8.211-9.839 8.211z"/></g><path d="m216.49 43.117h178.028c11.951 0 21.674 9.703 21.674 21.63s-9.723 21.63-21.674 21.63h-21.333c-5.522 0-10 4.478-10 10s4.478 10 10 10h21.333c22.979 0 41.674-18.675 41.674-41.63s-18.694-41.63-41.674-41.63h-178.028c-5.522 0-10 4.477-10 10s4.478 10 10 10z"/><path d="m376.591 217.161h-110.591v-43.373c0-5.523-4.478-10-10-10h-148.915c-15.858 0-28.76-12.877-28.76-28.705s12.901-28.706 28.76-28.706h176.936c5.522 0 10-4.478 10-10s-4.478-10-10-10h-176.936c-26.886 0-48.76 21.85-48.76 48.706 0 26.857 21.874 48.705 48.76 48.705h138.915v33.373h-110.591c-74.665 0-135.409 60.946-135.409 135.861 0 74.914 60.744 135.861 135.409 135.861 44.832 0 86.075-21.812 111.421-58.632h18.34c25.346 36.82 66.589 58.632 111.421 58.632 74.665 0 135.409-60.947 135.409-135.861 0-74.915-60.744-135.861-135.409-135.861zm-52.016 20v35.394h-137.15v-35.394zm52.016 231.722c-39.786 0-76.265-20.175-97.58-53.967-1.832-2.904-5.024-4.665-8.458-4.665h-29.105c-3.434 0-6.626 1.761-8.458 4.665-21.316 33.792-57.794 53.967-97.58 53.967-63.638 0-115.41-51.976-115.41-115.861 0-63.886 51.772-115.86 115.409-115.86h32.016v45.394c0 5.522 4.477 10 10 10h157.15c5.522 0 10-4.478 10-10v-45.394h32.016c63.637 0 115.409 51.975 115.409 115.86s-51.772 115.861-115.409 115.861z"/><path d="m337.04 422.672c-9.035 0-18.07-3.44-24.948-10.317-13.755-13.757-13.755-36.14 0-49.895 13.756-13.758 36.14-13.757 49.896-.001 13.756 13.757 13.756 36.14.001 49.895v.001c-6.879 6.877-15.914 10.317-24.949 10.317zm17.877-17.389h.01zm-17.877-33.151c-3.914 0-7.826 1.489-10.807 4.469-5.957 5.958-5.957 15.653.001 21.612 5.957 5.957 15.652 5.956 21.611-.001 5.958-5.958 5.958-15.653 0-21.612-2.978-2.978-6.892-4.468-10.805-4.468z"/><path d="m397.257 360.753c-9.424 0-18.284-3.671-24.947-10.335-6.663-6.663-10.334-15.523-10.334-24.947s3.671-18.284 10.335-24.947c6.662-6.663 15.523-10.333 24.946-10.333 9.424 0 18.284 3.669 24.948 10.333 6.663 6.663 10.333 15.523 10.333 24.947s-3.669 18.284-10.333 24.948c-6.664 6.663-15.524 10.334-24.948 10.334zm0-50.563c-4.082 0-7.919 1.589-10.805 4.475-2.887 2.887-4.477 6.724-4.477 10.806s1.59 7.92 4.477 10.806c2.886 2.887 6.723 4.477 10.805 4.477s7.92-1.59 10.806-4.477c2.887-2.886 4.476-6.724 4.476-10.806s-1.589-7.919-4.475-10.805c-2.887-2.887-6.725-4.476-10.807-4.476z"/><path d="m159.259 419.624h-42.631c-5.522 0-10-4.477-10-10v-17.166h-17.166c-5.522 0-10-4.478-10-10v-42.631c0-5.522 4.478-10 10-10h17.166v-17.166c0-5.522 4.478-10 10-10h42.631c5.522 0 10 4.478 10 10v17.166h17.166c5.522 0 10 4.478 10 10v42.631c0 5.522-4.478 10-10 10h-17.166v17.166c0 5.523-4.478 10-10 10zm-32.631-20h22.631v-17.166c0-5.523 4.477-10 10-10h17.166v-22.631h-17.166c-5.523 0-10-4.477-10-10v-17.166h-22.631v17.166c0 5.523-4.478 10-10 10h-17.166v22.631h17.166c5.522 0 10 4.477 10 10z"/></g></g></svg>